<svg xmlns="http://www.w3.org/2000/svg" xmlns:xlink="http://www.w3.org/1999/xlink" width="40" height="40" viewBox="0 0 40 40">
  <defs>
    <clipPath id="clip-path">
      <rect id="Retângulo_10" data-name="Retângulo 10" width="40" height="40" fill="none"/>
    </clipPath>
  </defs>
  <g id="Grupo_20" data-name="Grupo 20" transform="translate(1 0.975)">
    <g id="Grupo_9" data-name="Grupo 9" transform="translate(-1 -0.975)" clip-path="url(#clip-path)">
      <path id="Caminho_405" data-name="Caminho 405" d="M38.5,19.249A19.249,19.249,0,1,0,16.241,38.264V24.813H11.354V19.249h4.887V15.008c0-4.824,2.874-7.489,7.271-7.489a29.589,29.589,0,0,1,4.309.376v4.737H25.393c-2.391,0-3.137,1.484-3.137,3.006v3.611h5.339l-.854,5.564H22.256V38.264A19.254,19.254,0,0,0,38.5,19.249" transform="translate(0.748 0.784)" fill="#4676ed"/>
      <path id="Caminho_406" data-name="Caminho 406" d="M55.2,43.661l.853-5.564H50.717V34.486c0-1.522.746-3.006,3.137-3.006h2.427V26.743a29.589,29.589,0,0,0-4.309-.376c-4.4,0-7.271,2.665-7.271,7.489V38.1H39.815v5.564H44.7V57.112a19.459,19.459,0,0,0,6.015,0V43.661Z" transform="translate(-27.713 -18.065)" fill="#fff"/>
    </g>
  </g>
</svg>
