<svg width="152" height="154" viewBox="0 0 152 154" fill="none" xmlns="http://www.w3.org/2000/svg">
<path d="M3.24651 75.674C3.24295 88.5441 6.6058 101.111 13.0002 112.187L2.63498 150.033L41.3648 139.877C52.077 145.709 64.0791 148.765 76.2757 148.766H76.3078C116.571 148.766 149.347 116.002 149.364 75.7316C149.371 56.2176 141.779 37.868 127.984 24.0627C114.192 10.2587 95.849 2.65246 76.3048 2.64355C36.0367 2.64355 3.26373 35.4052 3.2471 75.674" fill="url(#paint0_linear_8_3552)"/>
<path d="M0.638401 75.6499C0.634245 88.9832 4.11762 101.999 10.74 113.473L0.00311661 152.674L40.1216 142.155C51.1756 148.182 63.6212 151.36 76.2854 151.365H76.318C118.026 151.365 151.979 117.423 151.996 75.7105C152.004 55.4954 144.138 36.4861 129.851 22.1863C115.561 7.88822 96.5622 0.00831214 76.318 0C34.603 0 0.655025 33.9373 0.638401 75.6499ZM24.5304 111.497L23.0325 109.119C16.7354 99.1062 13.4118 87.5357 13.4165 75.6547C13.4296 40.9842 41.6457 12.7769 76.3418 12.7769C93.1441 12.7841 108.935 19.334 120.812 31.218C132.688 43.1032 139.223 58.9022 139.219 75.7057C139.203 110.376 110.987 138.587 76.318 138.587H76.2931C65.0046 138.581 53.9334 135.55 44.2783 129.821L41.9806 128.458L18.1734 134.7L24.5304 111.497Z" fill="url(#paint1_linear_8_3552)"/>
<path d="M57.403 44.0233C55.9864 40.8748 54.4955 40.8112 53.1484 40.756C52.0452 40.7085 50.7842 40.7121 49.5243 40.7121C48.2632 40.7121 46.2143 41.1865 44.4824 43.0775C42.7487 44.9703 37.8636 49.5443 37.8636 58.8474C37.8636 68.1505 44.6397 77.1418 45.5843 78.4047C46.5301 79.6651 58.6659 99.3673 77.8859 106.947C93.8594 113.246 97.1101 111.993 100.577 111.677C104.044 111.362 111.765 107.104 113.34 102.689C114.916 98.2736 114.916 94.4892 114.444 93.6984C113.971 92.9105 112.71 92.4373 110.819 91.4921C108.928 90.5469 99.631 85.9717 97.8979 85.3405C96.1643 84.71 94.9038 84.3953 93.6427 86.2887C92.3817 88.1791 88.7605 92.4373 87.6568 93.6984C86.5543 94.9624 85.4505 95.1198 83.5601 94.174C81.6679 93.2252 75.5781 91.2309 68.3531 84.7896C62.7317 79.7773 58.9366 73.5878 57.8335 71.6944C56.7303 69.804 57.7153 68.7792 58.6635 67.837C59.5131 66.9897 60.5551 65.6289 61.5015 64.5252C62.4443 63.4208 62.759 62.633 63.3895 61.3719C64.0207 60.1096 63.7048 59.0053 63.2328 58.0595C62.759 57.1137 59.0844 47.762 57.403 44.0233Z" fill="white"/>
<defs>
<linearGradient id="paint0_linear_8_3552" x1="7339.07" y1="14741.5" x2="7339.07" y2="2.64355" gradientUnits="userSpaceOnUse">
<stop stop-color="#1FAF38"/>
<stop offset="1" stop-color="#60D669"/>
</linearGradient>
<linearGradient id="paint1_linear_8_3552" x1="7599.67" y1="15267.4" x2="7599.67" y2="0" gradientUnits="userSpaceOnUse">
<stop stop-color="#F9F9F9"/>
<stop offset="1" stop-color="white"/>
</linearGradient>
</defs>
</svg>
